G75*
G70*
%OFA0B0*%
%FSLAX24Y24*%
%IPPOS*%
%LPD*%
%AMOC8*
5,1,8,0,0,1.08239X$1,22.5*
%
%ADD10C,0.0150*%
%ADD11C,0.0060*%
%ADD12C,0.0040*%
%ADD13C,0.0100*%
%ADD14C,0.0160*%
%ADD15R,0.0200X0.0150*%
%ADD16C,0.0050*%
%ADD17C,0.0080*%
D10*
X023760Y005880D02*
X024044Y006164D01*
X024044Y006022D02*
X024044Y006448D01*
X023760Y006448D02*
X024611Y006448D01*
X024611Y006022D01*
X024469Y005880D01*
X024186Y005880D01*
X024044Y006022D01*
X023760Y006801D02*
X023760Y007368D01*
X024611Y007368D01*
X024611Y006801D01*
X024186Y007085D02*
X024186Y007368D01*
X024611Y007722D02*
X024611Y008289D01*
X024611Y008643D02*
X024611Y009210D01*
X023760Y009210D01*
X023760Y008643D01*
X024186Y008926D02*
X024186Y009210D01*
X024611Y009563D02*
X023760Y009563D01*
X023760Y010131D02*
X024611Y010131D01*
X024327Y009847D01*
X024611Y009563D01*
X024469Y010484D02*
X023902Y010484D01*
X023760Y010626D01*
X023760Y010910D01*
X023902Y011051D01*
X024469Y011051D01*
X024611Y010910D01*
X024611Y010626D01*
X024469Y010484D01*
X023760Y011405D02*
X023760Y011972D01*
X024611Y011972D01*
X024327Y012326D02*
X023760Y012326D01*
X024186Y012326D02*
X024186Y012893D01*
X024327Y012893D02*
X024611Y012609D01*
X024327Y012326D01*
X024327Y012893D02*
X023760Y012893D01*
X024044Y013246D02*
X024611Y013246D01*
X024611Y013814D02*
X024044Y013814D01*
X023760Y013530D01*
X024044Y013246D01*
X024186Y014167D02*
X024044Y014309D01*
X024044Y014734D01*
X024044Y014451D02*
X023760Y014167D01*
X024186Y014167D02*
X024469Y014167D01*
X024611Y014309D01*
X024611Y014734D01*
X023760Y014734D01*
X023760Y015088D02*
X023760Y015655D01*
X024611Y015655D01*
X024611Y015088D01*
X024186Y015371D02*
X024186Y015655D01*
X024611Y016009D02*
X024611Y016576D01*
X024611Y016929D02*
X023760Y016929D01*
X024611Y017497D01*
X023760Y017497D01*
X023760Y017827D02*
X023760Y018110D01*
X023760Y017969D02*
X024611Y017969D01*
X024611Y018110D02*
X024611Y017827D01*
X024611Y016292D02*
X023760Y016292D01*
X023760Y008006D02*
X024611Y008006D01*
D11*
X003085Y003235D02*
X002285Y003235D01*
X002268Y003237D01*
X002251Y003241D01*
X002235Y003248D01*
X002221Y003258D01*
X002208Y003271D01*
X002198Y003285D01*
X002191Y003301D01*
X002187Y003318D01*
X002185Y003335D01*
X002185Y005035D01*
X002187Y005052D01*
X002191Y005069D01*
X002198Y005085D01*
X002208Y005099D01*
X002221Y005112D01*
X002235Y005122D01*
X002251Y005129D01*
X002268Y005133D01*
X002285Y005135D01*
X003085Y005135D01*
X003102Y005133D01*
X003119Y005129D01*
X003135Y005122D01*
X003149Y005112D01*
X003162Y005099D01*
X003172Y005085D01*
X003179Y005069D01*
X003183Y005052D01*
X003185Y005035D01*
X003185Y003335D01*
X003183Y003318D01*
X003179Y003301D01*
X003172Y003285D01*
X003162Y003271D01*
X003149Y003258D01*
X003135Y003248D01*
X003119Y003241D01*
X003102Y003237D01*
X003085Y003235D01*
X003685Y003185D02*
X003685Y003785D01*
X003724Y003787D01*
X003763Y003793D01*
X003801Y003802D01*
X003838Y003815D01*
X003874Y003832D01*
X003907Y003852D01*
X003939Y003876D01*
X003968Y003902D01*
X003994Y003931D01*
X004018Y003963D01*
X004038Y003996D01*
X004055Y004032D01*
X004068Y004069D01*
X004077Y004107D01*
X004083Y004146D01*
X004085Y004185D01*
X004083Y004224D01*
X004077Y004263D01*
X004068Y004301D01*
X004055Y004338D01*
X004038Y004374D01*
X004018Y004407D01*
X003994Y004439D01*
X003968Y004468D01*
X003939Y004494D01*
X003907Y004518D01*
X003874Y004538D01*
X003838Y004555D01*
X003801Y004568D01*
X003763Y004577D01*
X003724Y004583D01*
X003685Y004585D01*
X003685Y005185D01*
X010685Y005185D01*
X010685Y003185D01*
X010685Y002185D01*
X003685Y002185D01*
X003685Y003185D01*
X010685Y003185D01*
X011385Y002985D02*
X011385Y002885D01*
X011385Y002985D02*
X011485Y002985D01*
X011485Y003385D02*
X011385Y003385D01*
X011385Y003485D01*
X011385Y003885D02*
X011385Y003985D01*
X011485Y003985D01*
X011485Y004385D02*
X011385Y004385D01*
X011385Y004485D01*
X011885Y004385D02*
X011985Y004385D01*
X011985Y004485D01*
X011985Y004885D02*
X011985Y004985D01*
X011885Y004985D01*
X011485Y004985D02*
X011385Y004985D01*
X011385Y004885D01*
X010685Y005185D02*
X010685Y006185D01*
X003685Y006185D01*
X003685Y005185D01*
X002685Y004335D02*
X002685Y004285D01*
X002685Y004085D02*
X002685Y004035D01*
X002885Y007685D02*
X003485Y007685D01*
X003502Y007687D01*
X003519Y007691D01*
X003535Y007698D01*
X003549Y007708D01*
X003562Y007721D01*
X003572Y007735D01*
X003579Y007751D01*
X003583Y007768D01*
X003585Y007785D01*
X003585Y007935D01*
X003535Y007985D01*
X003535Y009385D01*
X003585Y009435D01*
X003585Y009585D01*
X003583Y009602D01*
X003579Y009619D01*
X003572Y009635D01*
X003562Y009649D01*
X003549Y009662D01*
X003535Y009672D01*
X003519Y009679D01*
X003502Y009683D01*
X003485Y009685D01*
X002885Y009685D01*
X002868Y009683D01*
X002851Y009679D01*
X002835Y009672D01*
X002821Y009662D01*
X002808Y009649D01*
X002798Y009635D01*
X002791Y009619D01*
X002787Y009602D01*
X002785Y009585D01*
X002785Y009435D01*
X002835Y009385D01*
X002835Y007985D01*
X002785Y007935D01*
X002785Y007785D01*
X002787Y007768D01*
X002791Y007751D01*
X002798Y007735D01*
X002808Y007721D01*
X002821Y007708D01*
X002835Y007698D01*
X002851Y007691D01*
X002868Y007687D01*
X002885Y007685D01*
X002965Y008401D02*
X003406Y008401D01*
X003259Y008548D01*
X003406Y008695D01*
X002965Y008695D01*
X002965Y008862D02*
X002965Y009155D01*
X002965Y009009D02*
X003406Y009009D01*
X003259Y009155D01*
X003785Y009435D02*
X003785Y009585D01*
X003787Y009602D01*
X003791Y009619D01*
X003798Y009635D01*
X003808Y009649D01*
X003821Y009662D01*
X003835Y009672D01*
X003851Y009679D01*
X003868Y009683D01*
X003885Y009685D01*
X004485Y009685D01*
X004502Y009683D01*
X004519Y009679D01*
X004535Y009672D01*
X004549Y009662D01*
X004562Y009649D01*
X004572Y009635D01*
X004579Y009619D01*
X004583Y009602D01*
X004585Y009585D01*
X004585Y009435D01*
X004535Y009385D01*
X004535Y007985D01*
X004585Y007935D01*
X004585Y007785D01*
X004583Y007768D01*
X004579Y007751D01*
X004572Y007735D01*
X004562Y007721D01*
X004549Y007708D01*
X004535Y007698D01*
X004519Y007691D01*
X004502Y007687D01*
X004485Y007685D01*
X003885Y007685D01*
X003868Y007687D01*
X003851Y007691D01*
X003835Y007698D01*
X003821Y007708D01*
X003808Y007721D01*
X003798Y007735D01*
X003791Y007751D01*
X003787Y007768D01*
X003785Y007785D01*
X003785Y007935D01*
X003835Y007985D01*
X003835Y009385D01*
X003785Y009435D01*
X003965Y009155D02*
X003965Y008862D01*
X003965Y009009D02*
X004406Y009009D01*
X004259Y009155D01*
X004406Y008695D02*
X003965Y008695D01*
X004112Y008695D02*
X004406Y008401D01*
X004186Y008622D02*
X003965Y008401D01*
X004785Y007935D02*
X004785Y007785D01*
X004787Y007768D01*
X004791Y007751D01*
X004798Y007735D01*
X004808Y007721D01*
X004821Y007708D01*
X004835Y007698D01*
X004851Y007691D01*
X004868Y007687D01*
X004885Y007685D01*
X005485Y007685D01*
X005502Y007687D01*
X005519Y007691D01*
X005535Y007698D01*
X005549Y007708D01*
X005562Y007721D01*
X005572Y007735D01*
X005579Y007751D01*
X005583Y007768D01*
X005585Y007785D01*
X005585Y007935D01*
X005535Y007985D01*
X005535Y009385D01*
X005585Y009435D01*
X005585Y009585D01*
X005583Y009602D01*
X005579Y009619D01*
X005572Y009635D01*
X005562Y009649D01*
X005549Y009662D01*
X005535Y009672D01*
X005519Y009679D01*
X005502Y009683D01*
X005485Y009685D01*
X004885Y009685D01*
X004868Y009683D01*
X004851Y009679D01*
X004835Y009672D01*
X004821Y009662D01*
X004808Y009649D01*
X004798Y009635D01*
X004791Y009619D01*
X004787Y009602D01*
X004785Y009585D01*
X004785Y009435D01*
X004835Y009385D01*
X004835Y007985D01*
X004785Y007935D01*
X004965Y007941D02*
X005186Y008161D01*
X005112Y008235D02*
X005406Y007941D01*
X005406Y008235D02*
X004965Y008235D01*
X005039Y008401D02*
X004965Y008475D01*
X004965Y008622D01*
X005039Y008695D01*
X005332Y008401D01*
X005039Y008401D01*
X005332Y008401D02*
X005406Y008475D01*
X005406Y008622D01*
X005332Y008695D01*
X005039Y008695D01*
X004965Y008862D02*
X004965Y009155D01*
X004965Y009009D02*
X005406Y009009D01*
X005259Y009155D01*
X005785Y009435D02*
X005785Y009585D01*
X005787Y009602D01*
X005791Y009619D01*
X005798Y009635D01*
X005808Y009649D01*
X005821Y009662D01*
X005835Y009672D01*
X005851Y009679D01*
X005868Y009683D01*
X005885Y009685D01*
X006485Y009685D01*
X006502Y009683D01*
X006519Y009679D01*
X006535Y009672D01*
X006549Y009662D01*
X006562Y009649D01*
X006572Y009635D01*
X006579Y009619D01*
X006583Y009602D01*
X006585Y009585D01*
X006585Y009435D01*
X006535Y009385D01*
X006535Y007985D01*
X006585Y007935D01*
X006585Y007785D01*
X006583Y007768D01*
X006579Y007751D01*
X006572Y007735D01*
X006562Y007721D01*
X006549Y007708D01*
X006535Y007698D01*
X006519Y007691D01*
X006502Y007687D01*
X006485Y007685D01*
X005885Y007685D01*
X005868Y007687D01*
X005851Y007691D01*
X005835Y007698D01*
X005821Y007708D01*
X005808Y007721D01*
X005798Y007735D01*
X005791Y007751D01*
X005787Y007768D01*
X005785Y007785D01*
X005785Y007935D01*
X005835Y007985D01*
X005835Y009385D01*
X005785Y009435D01*
X005965Y009155D02*
X005965Y008862D01*
X005965Y009009D02*
X006406Y009009D01*
X006259Y009155D01*
X006332Y008695D02*
X006039Y008695D01*
X006332Y008401D01*
X006039Y008401D01*
X005965Y008475D01*
X005965Y008622D01*
X006039Y008695D01*
X006332Y008695D02*
X006406Y008622D01*
X006406Y008475D01*
X006332Y008401D01*
X006406Y008235D02*
X005965Y008235D01*
X006112Y008235D02*
X006406Y007941D01*
X006186Y008161D02*
X005965Y007941D01*
X006785Y007935D02*
X006785Y007785D01*
X006787Y007768D01*
X006791Y007751D01*
X006798Y007735D01*
X006808Y007721D01*
X006821Y007708D01*
X006835Y007698D01*
X006851Y007691D01*
X006868Y007687D01*
X006885Y007685D01*
X007485Y007685D01*
X007502Y007687D01*
X007519Y007691D01*
X007535Y007698D01*
X007549Y007708D01*
X007562Y007721D01*
X007572Y007735D01*
X007579Y007751D01*
X007583Y007768D01*
X007585Y007785D01*
X007585Y007935D01*
X007535Y007985D01*
X007535Y009385D01*
X007585Y009435D01*
X007585Y009585D01*
X007583Y009602D01*
X007579Y009619D01*
X007572Y009635D01*
X007562Y009649D01*
X007549Y009662D01*
X007535Y009672D01*
X007519Y009679D01*
X007502Y009683D01*
X007485Y009685D01*
X006885Y009685D01*
X006868Y009683D01*
X006851Y009679D01*
X006835Y009672D01*
X006821Y009662D01*
X006808Y009649D01*
X006798Y009635D01*
X006791Y009619D01*
X006787Y009602D01*
X006785Y009585D01*
X006785Y009435D01*
X006835Y009385D01*
X006835Y007985D01*
X006785Y007935D01*
X006965Y008401D02*
X007406Y008401D01*
X007259Y008548D01*
X007406Y008695D01*
X006965Y008695D01*
X006965Y008862D02*
X006965Y009155D01*
X006965Y009009D02*
X007406Y009009D01*
X007259Y009155D01*
X007785Y009435D02*
X007785Y009585D01*
X007787Y009602D01*
X007791Y009619D01*
X007798Y009635D01*
X007808Y009649D01*
X007821Y009662D01*
X007835Y009672D01*
X007851Y009679D01*
X007868Y009683D01*
X007885Y009685D01*
X008485Y009685D01*
X008502Y009683D01*
X008519Y009679D01*
X008535Y009672D01*
X008549Y009662D01*
X008562Y009649D01*
X008572Y009635D01*
X008579Y009619D01*
X008583Y009602D01*
X008585Y009585D01*
X008585Y009435D01*
X008535Y009385D01*
X008535Y007985D01*
X008585Y007935D01*
X008585Y007785D01*
X008583Y007768D01*
X008579Y007751D01*
X008572Y007735D01*
X008562Y007721D01*
X008549Y007708D01*
X008535Y007698D01*
X008519Y007691D01*
X008502Y007687D01*
X008485Y007685D01*
X007885Y007685D01*
X007868Y007687D01*
X007851Y007691D01*
X007835Y007698D01*
X007821Y007708D01*
X007808Y007721D01*
X007798Y007735D01*
X007791Y007751D01*
X007787Y007768D01*
X007785Y007785D01*
X007785Y007935D01*
X007835Y007985D01*
X007835Y009385D01*
X007785Y009435D01*
X007965Y009155D02*
X007965Y008862D01*
X007965Y009009D02*
X008406Y009009D01*
X008259Y009155D01*
X008406Y008695D02*
X007965Y008695D01*
X007965Y008401D02*
X008406Y008401D01*
X008259Y008548D01*
X008406Y008695D01*
X008965Y008695D02*
X009406Y008695D01*
X009259Y008548D01*
X009406Y008401D01*
X008965Y008401D01*
X008835Y007985D02*
X008785Y007935D01*
X008785Y007785D01*
X008787Y007768D01*
X008791Y007751D01*
X008798Y007735D01*
X008808Y007721D01*
X008821Y007708D01*
X008835Y007698D01*
X008851Y007691D01*
X008868Y007687D01*
X008885Y007685D01*
X009485Y007685D01*
X009502Y007687D01*
X009519Y007691D01*
X009535Y007698D01*
X009549Y007708D01*
X009562Y007721D01*
X009572Y007735D01*
X009579Y007751D01*
X009583Y007768D01*
X009585Y007785D01*
X009585Y007935D01*
X009535Y007985D01*
X009535Y009385D01*
X009585Y009435D01*
X009585Y009585D01*
X009583Y009602D01*
X009579Y009619D01*
X009572Y009635D01*
X009562Y009649D01*
X009549Y009662D01*
X009535Y009672D01*
X009519Y009679D01*
X009502Y009683D01*
X009485Y009685D01*
X008885Y009685D01*
X008868Y009683D01*
X008851Y009679D01*
X008835Y009672D01*
X008821Y009662D01*
X008808Y009649D01*
X008798Y009635D01*
X008791Y009619D01*
X008787Y009602D01*
X008785Y009585D01*
X008785Y009435D01*
X008835Y009385D01*
X008835Y007985D01*
X009785Y007935D02*
X009785Y007785D01*
X009787Y007768D01*
X009791Y007751D01*
X009798Y007735D01*
X009808Y007721D01*
X009821Y007708D01*
X009835Y007698D01*
X009851Y007691D01*
X009868Y007687D01*
X009885Y007685D01*
X010485Y007685D01*
X010502Y007687D01*
X010519Y007691D01*
X010535Y007698D01*
X010549Y007708D01*
X010562Y007721D01*
X010572Y007735D01*
X010579Y007751D01*
X010583Y007768D01*
X010585Y007785D01*
X010585Y007935D01*
X010535Y007985D01*
X010535Y009385D01*
X010585Y009435D01*
X010585Y009585D01*
X010583Y009602D01*
X010579Y009619D01*
X010572Y009635D01*
X010562Y009649D01*
X010549Y009662D01*
X010535Y009672D01*
X010519Y009679D01*
X010502Y009683D01*
X010485Y009685D01*
X009885Y009685D01*
X009868Y009683D01*
X009851Y009679D01*
X009835Y009672D01*
X009821Y009662D01*
X009808Y009649D01*
X009798Y009635D01*
X009791Y009619D01*
X009787Y009602D01*
X009785Y009585D01*
X009785Y009435D01*
X009835Y009385D01*
X009835Y007985D01*
X009785Y007935D01*
X009965Y008401D02*
X010406Y008401D01*
X010259Y008548D01*
X010406Y008695D01*
X009965Y008695D01*
X009965Y008862D02*
X009965Y009155D01*
X009965Y009009D02*
X010406Y009009D01*
X010259Y009155D01*
X009406Y009009D02*
X008965Y009009D01*
X008965Y009155D02*
X008965Y008862D01*
X009259Y009155D02*
X009406Y009009D01*
X012735Y009785D02*
X012735Y010585D01*
X012737Y010602D01*
X012741Y010619D01*
X012748Y010635D01*
X012758Y010649D01*
X012771Y010662D01*
X012785Y010672D01*
X012801Y010679D01*
X012818Y010683D01*
X012835Y010685D01*
X014535Y010685D01*
X014552Y010683D01*
X014569Y010679D01*
X014585Y010672D01*
X014599Y010662D01*
X014612Y010649D01*
X014622Y010635D01*
X014629Y010619D01*
X014633Y010602D01*
X014635Y010585D01*
X014635Y009785D01*
X014633Y009768D01*
X014629Y009751D01*
X014622Y009735D01*
X014612Y009721D01*
X014599Y009708D01*
X014585Y009698D01*
X014569Y009691D01*
X014552Y009687D01*
X014535Y009685D01*
X012835Y009685D01*
X012818Y009687D01*
X012801Y009691D01*
X012785Y009698D01*
X012771Y009708D01*
X012758Y009721D01*
X012748Y009735D01*
X012741Y009751D01*
X012737Y009768D01*
X012735Y009785D01*
X013535Y010185D02*
X013585Y010185D01*
X013785Y010185D02*
X013835Y010185D01*
X015385Y009985D02*
X015385Y009885D01*
X015385Y009985D02*
X015485Y009985D01*
X015885Y009985D02*
X015985Y009985D01*
X015985Y009885D01*
X015985Y009485D02*
X015985Y009385D01*
X015885Y009385D01*
X015485Y009385D02*
X015385Y009385D01*
X015385Y009485D01*
X016385Y009485D02*
X016385Y009385D01*
X016485Y009385D01*
X016885Y009385D02*
X016985Y009385D01*
X016985Y009485D01*
X016985Y009885D02*
X016985Y009985D01*
X016885Y009985D01*
X016485Y009985D02*
X016385Y009985D01*
X016385Y009885D01*
X017385Y009885D02*
X017385Y009985D01*
X017485Y009985D01*
X017885Y009985D02*
X017985Y009985D01*
X017985Y009885D01*
X017985Y009485D02*
X017985Y009385D01*
X017885Y009385D01*
X017485Y009385D02*
X017385Y009385D01*
X017385Y009485D01*
X020715Y009655D02*
X020715Y009228D01*
X020822Y009011D02*
X021249Y008584D01*
X020822Y008584D01*
X020715Y008691D01*
X020715Y008904D01*
X020822Y009011D01*
X021249Y009011D01*
X021356Y008904D01*
X021356Y008691D01*
X021249Y008584D01*
X021249Y008366D02*
X021356Y008260D01*
X021356Y008046D01*
X021249Y007939D01*
X020822Y008366D01*
X020715Y008260D01*
X020715Y008046D01*
X020822Y007939D01*
X021249Y007939D01*
X021249Y007722D02*
X021142Y007722D01*
X021036Y007615D01*
X021036Y007295D01*
X021249Y007295D02*
X021356Y007402D01*
X021356Y007615D01*
X021249Y007722D01*
X021715Y007616D02*
X021822Y007722D01*
X022249Y007722D01*
X022142Y007616D02*
X022142Y007829D01*
X022142Y008046D02*
X022142Y008153D01*
X021929Y008366D01*
X022142Y008366D02*
X021715Y008366D01*
X021822Y008584D02*
X021715Y008691D01*
X021715Y008904D01*
X021822Y009011D01*
X022036Y009011D01*
X022142Y008904D01*
X022142Y008691D01*
X022036Y008584D01*
X021822Y008584D01*
X021249Y008366D02*
X020822Y008366D01*
X020822Y007722D02*
X020715Y007615D01*
X020715Y007402D01*
X020822Y007295D01*
X021249Y007295D01*
X021715Y007293D02*
X021822Y007400D01*
X022036Y007400D01*
X022142Y007293D01*
X022142Y007079D01*
X022036Y006973D01*
X021822Y006973D01*
X021715Y007079D01*
X021715Y007293D01*
X021715Y006755D02*
X022142Y006755D01*
X022142Y006435D01*
X022036Y006328D01*
X021715Y006328D01*
X021822Y006004D02*
X021715Y005897D01*
X021822Y006004D02*
X022249Y006004D01*
X022142Y006110D02*
X022142Y005897D01*
X021822Y005681D02*
X021822Y005574D01*
X021715Y005574D01*
X021715Y005681D01*
X021822Y005681D01*
X021822Y005359D02*
X021715Y005252D01*
X021715Y004932D01*
X021822Y004714D02*
X021715Y004607D01*
X021715Y004394D01*
X021822Y004287D01*
X022036Y004287D01*
X022142Y004394D01*
X022142Y004607D01*
X022036Y004714D01*
X021822Y004714D01*
X022142Y004932D02*
X022142Y005252D01*
X022036Y005359D01*
X021822Y005359D01*
X022715Y005252D02*
X022822Y005359D01*
X023249Y005359D01*
X023142Y005466D02*
X023142Y005252D01*
X023036Y005036D02*
X022822Y005036D01*
X022715Y004930D01*
X022715Y004716D01*
X022822Y004609D01*
X023036Y004609D01*
X023142Y004716D01*
X023142Y004930D01*
X023036Y005036D01*
X023142Y004392D02*
X022715Y004392D01*
X022715Y003965D02*
X023036Y003965D01*
X023142Y004071D01*
X023142Y004392D01*
X022142Y004069D02*
X022142Y003963D01*
X022036Y003856D01*
X022142Y003749D01*
X022036Y003642D01*
X021715Y003642D01*
X021715Y003856D02*
X022036Y003856D01*
X022142Y004069D02*
X021715Y004069D01*
X023142Y005683D02*
X023142Y005790D01*
X022929Y006003D01*
X023142Y006003D02*
X022715Y006003D01*
X022822Y006221D02*
X022715Y006327D01*
X022715Y006541D01*
X022822Y006648D01*
X023036Y006648D01*
X023142Y006541D01*
X023142Y006327D01*
X023036Y006221D01*
X022822Y006221D01*
X022715Y006865D02*
X023356Y006865D01*
X023036Y006865D02*
X023036Y007292D01*
X023356Y007292D02*
X022715Y007292D01*
X022715Y008154D02*
X023036Y008154D01*
X023142Y008261D01*
X023036Y008368D01*
X022715Y008368D01*
X022715Y008581D02*
X023142Y008581D01*
X023142Y008474D01*
X023036Y008368D01*
X022715Y008797D02*
X022715Y009011D01*
X022715Y008904D02*
X023142Y008904D01*
X023142Y009011D01*
X023356Y008904D02*
X023463Y008904D01*
X023356Y009228D02*
X023356Y009655D01*
X023356Y009442D02*
X022715Y009442D01*
X022356Y009655D02*
X021715Y009655D01*
X021356Y009549D02*
X021356Y009335D01*
X021249Y009228D01*
X021142Y009228D01*
X020715Y009655D01*
X021249Y009655D02*
X021356Y009549D01*
X021715Y009228D02*
X022036Y009228D01*
X022142Y009335D01*
X022142Y009549D01*
X022036Y009655D01*
X021985Y012085D02*
X021985Y014285D01*
X007385Y014285D01*
X007385Y013435D01*
X007415Y013433D01*
X007445Y013428D01*
X007474Y013419D01*
X007501Y013406D01*
X007527Y013391D01*
X007551Y013372D01*
X007572Y013351D01*
X007591Y013327D01*
X007606Y013301D01*
X007619Y013274D01*
X007628Y013245D01*
X007633Y013215D01*
X007635Y013185D01*
X007633Y013155D01*
X007628Y013125D01*
X007619Y013096D01*
X007606Y013069D01*
X007591Y013043D01*
X007572Y013019D01*
X007551Y012998D01*
X007527Y012979D01*
X007501Y012964D01*
X007474Y012951D01*
X007445Y012942D01*
X007415Y012937D01*
X007385Y012935D01*
X007385Y012085D01*
X021985Y012085D01*
X022085Y016585D02*
X010285Y016585D01*
X010285Y017435D01*
X010315Y017437D01*
X010345Y017442D01*
X010374Y017451D01*
X010401Y017464D01*
X010427Y017479D01*
X010451Y017498D01*
X010472Y017519D01*
X010491Y017543D01*
X010506Y017569D01*
X010519Y017596D01*
X010528Y017625D01*
X010533Y017655D01*
X010535Y017685D01*
X010533Y017715D01*
X010528Y017745D01*
X010519Y017774D01*
X010506Y017801D01*
X010491Y017827D01*
X010472Y017851D01*
X010451Y017872D01*
X010427Y017891D01*
X010401Y017906D01*
X010374Y017919D01*
X010345Y017928D01*
X010315Y017933D01*
X010285Y017935D01*
X010285Y018785D01*
X022085Y018785D01*
X022085Y016585D01*
X022785Y018735D02*
X023585Y018735D01*
X023602Y018737D01*
X023619Y018741D01*
X023635Y018748D01*
X023649Y018758D01*
X023662Y018771D01*
X023672Y018785D01*
X023679Y018801D01*
X023683Y018818D01*
X023685Y018835D01*
X023685Y020535D01*
X023683Y020552D01*
X023679Y020569D01*
X023672Y020585D01*
X023662Y020599D01*
X023649Y020612D01*
X023635Y020622D01*
X023619Y020629D01*
X023602Y020633D01*
X023585Y020635D01*
X022785Y020635D01*
X022768Y020633D01*
X022751Y020629D01*
X022735Y020622D01*
X022721Y020612D01*
X022708Y020599D01*
X022698Y020585D01*
X022691Y020569D01*
X022687Y020552D01*
X022685Y020535D01*
X022685Y018835D01*
X022687Y018818D01*
X022691Y018801D01*
X022698Y018785D01*
X022708Y018771D01*
X022721Y018758D01*
X022735Y018748D01*
X022751Y018741D01*
X022768Y018737D01*
X022785Y018735D01*
X023185Y019535D02*
X023185Y019585D01*
X023185Y019785D02*
X023185Y019835D01*
X022435Y020685D02*
X021935Y020685D01*
X021685Y020935D01*
X021435Y020685D01*
X020935Y020685D01*
X020685Y020935D01*
X020435Y020685D01*
X019935Y020685D01*
X019685Y020935D01*
X019435Y020685D01*
X018935Y020685D01*
X018685Y020935D01*
X018435Y020685D01*
X017935Y020685D01*
X017685Y020935D01*
X017435Y020685D01*
X016935Y020685D01*
X016685Y020935D01*
X016435Y020685D01*
X015935Y020685D01*
X015685Y020935D01*
X015435Y020685D01*
X014935Y020685D01*
X014685Y020935D01*
X014435Y020685D01*
X013935Y020685D01*
X013685Y020935D01*
X013435Y020685D01*
X012935Y020685D01*
X012685Y020935D01*
X012435Y020685D01*
X011935Y020685D01*
X011685Y020935D01*
X011435Y020685D01*
X010935Y020685D01*
X010685Y020935D01*
X010435Y020685D01*
X009935Y020685D01*
X009685Y020935D01*
X009435Y020685D01*
X008935Y020685D01*
X008685Y020935D01*
X008435Y020685D01*
X007935Y020685D01*
X007685Y020935D01*
X007435Y020685D01*
X006935Y020685D01*
X006685Y020935D01*
X006685Y021435D01*
X006935Y021685D01*
X007435Y021685D01*
X007685Y021435D01*
X007935Y021685D01*
X008435Y021685D01*
X008685Y021435D01*
X008685Y020935D01*
X008685Y021435D02*
X008935Y021685D01*
X009435Y021685D01*
X009685Y021435D01*
X009935Y021685D01*
X010435Y021685D01*
X010685Y021435D01*
X010935Y021685D01*
X011435Y021685D01*
X011685Y021435D01*
X011685Y020935D01*
X011685Y021435D02*
X011935Y021685D01*
X012435Y021685D01*
X012685Y021435D01*
X012935Y021685D01*
X013435Y021685D01*
X013685Y021435D01*
X013935Y021685D01*
X014435Y021685D01*
X014685Y021435D01*
X014685Y020935D01*
X014685Y021435D02*
X014935Y021685D01*
X015435Y021685D01*
X015685Y021435D01*
X015935Y021685D01*
X016435Y021685D01*
X016685Y021435D01*
X016935Y021685D01*
X017435Y021685D01*
X017685Y021435D01*
X017685Y020935D01*
X017685Y021435D02*
X017935Y021685D01*
X018435Y021685D01*
X018685Y021435D01*
X018935Y021685D01*
X019435Y021685D01*
X019685Y021435D01*
X019935Y021685D01*
X020435Y021685D01*
X020685Y021435D01*
X020685Y020935D01*
X020685Y021435D02*
X020935Y021685D01*
X021435Y021685D01*
X021685Y021435D01*
X021935Y021685D01*
X022435Y021685D01*
X022685Y021435D01*
X022685Y020935D01*
X022435Y020685D01*
X021685Y020935D02*
X021685Y021435D01*
X019685Y021435D02*
X019685Y020935D01*
X018685Y020935D02*
X018685Y021435D01*
X016685Y021435D02*
X016685Y020935D01*
X015685Y020935D02*
X015685Y021435D01*
X013685Y021435D02*
X013685Y020935D01*
X012685Y020935D02*
X012685Y021435D01*
X010685Y021435D02*
X010685Y020935D01*
X009685Y020935D02*
X009685Y021435D01*
X007685Y021435D02*
X007685Y020935D01*
X005985Y020885D02*
X005985Y020985D01*
X005985Y020885D02*
X005885Y020885D01*
X005485Y020885D02*
X005385Y020885D01*
X005385Y020985D01*
X004985Y020985D02*
X004985Y020885D01*
X004885Y020885D01*
X004485Y020885D02*
X004385Y020885D01*
X004385Y020985D01*
X003985Y020985D02*
X003985Y020885D01*
X003885Y020885D01*
X003485Y020885D02*
X003385Y020885D01*
X003385Y020985D01*
X003385Y021385D02*
X003385Y021485D01*
X003485Y021485D01*
X003885Y021485D02*
X003985Y021485D01*
X003985Y021385D01*
X004385Y021385D02*
X004385Y021485D01*
X004485Y021485D01*
X004885Y021485D02*
X004985Y021485D01*
X004985Y021385D01*
X005385Y021385D02*
X005385Y021485D01*
X005485Y021485D01*
X005885Y021485D02*
X005985Y021485D01*
X005985Y021385D01*
X002985Y021385D02*
X002985Y021485D01*
X002885Y021485D01*
X002485Y021485D02*
X002385Y021485D01*
X002385Y021385D01*
X002385Y020985D02*
X002385Y020885D01*
X002485Y020885D01*
X002885Y020885D02*
X002985Y020885D01*
X002985Y020985D01*
X002685Y018835D02*
X002685Y018085D01*
X002724Y018083D01*
X002763Y018077D01*
X002801Y018068D01*
X002838Y018055D01*
X002874Y018038D01*
X002907Y018018D01*
X002939Y017994D01*
X002968Y017968D01*
X002994Y017939D01*
X003018Y017907D01*
X003038Y017874D01*
X003055Y017838D01*
X003068Y017801D01*
X003077Y017763D01*
X003083Y017724D01*
X003085Y017685D01*
X003083Y017646D01*
X003077Y017607D01*
X003068Y017569D01*
X003055Y017532D01*
X003038Y017496D01*
X003018Y017463D01*
X002994Y017431D01*
X002968Y017402D01*
X002939Y017376D01*
X002907Y017352D01*
X002874Y017332D01*
X002838Y017315D01*
X002801Y017302D01*
X002763Y017293D01*
X002724Y017287D01*
X002685Y017285D01*
X002685Y016535D01*
X009685Y016535D01*
X009685Y018835D01*
X002685Y018835D01*
X002185Y018535D02*
X002185Y016835D01*
X002183Y016818D01*
X002179Y016801D01*
X002172Y016785D01*
X002162Y016771D01*
X002149Y016758D01*
X002135Y016748D01*
X002119Y016741D01*
X002102Y016737D01*
X002085Y016735D01*
X001285Y016735D01*
X001268Y016737D01*
X001251Y016741D01*
X001235Y016748D01*
X001221Y016758D01*
X001208Y016771D01*
X001198Y016785D01*
X001191Y016801D01*
X001187Y016818D01*
X001185Y016835D01*
X001185Y018535D01*
X001187Y018552D01*
X001191Y018569D01*
X001198Y018585D01*
X001208Y018599D01*
X001221Y018612D01*
X001235Y018622D01*
X001251Y018629D01*
X001268Y018633D01*
X001285Y018635D01*
X002085Y018635D01*
X002102Y018633D01*
X002119Y018629D01*
X002135Y018622D01*
X002149Y018612D01*
X002162Y018599D01*
X002172Y018585D01*
X002179Y018569D01*
X002183Y018552D01*
X002185Y018535D01*
X001685Y017835D02*
X001685Y017785D01*
X001685Y017585D02*
X001685Y017535D01*
X001885Y014985D02*
X001885Y014885D01*
X001885Y014985D02*
X001985Y014985D01*
X002385Y014985D02*
X002485Y014985D01*
X002485Y014885D01*
X002485Y014485D02*
X002485Y014385D01*
X002385Y014385D01*
X001985Y014385D02*
X001885Y014385D01*
X001885Y014485D01*
X002785Y013585D02*
X002985Y013585D01*
X002885Y013685D02*
X002885Y013485D01*
X001185Y013185D02*
X001222Y013455D01*
X001331Y013705D01*
X001502Y013916D01*
X001725Y014073D01*
X001982Y014164D01*
X002253Y014183D01*
X002520Y014127D01*
X002762Y014002D01*
X002961Y013816D01*
X003102Y013583D01*
X003176Y013321D01*
X003176Y013049D01*
X003102Y012787D01*
X002961Y012554D01*
X002762Y012368D01*
X002520Y012243D01*
X002253Y012187D01*
X001982Y012206D01*
X001725Y012297D01*
X001502Y012454D01*
X001331Y012665D01*
X001222Y012915D01*
X001185Y013185D01*
X001885Y011985D02*
X001885Y011885D01*
X001885Y011985D02*
X001985Y011985D01*
X002385Y011985D02*
X002485Y011985D01*
X002485Y011885D01*
X002485Y011485D02*
X002485Y011385D01*
X002385Y011385D01*
X001985Y011385D02*
X001885Y011385D01*
X001885Y011485D01*
X011385Y002485D02*
X011385Y002385D01*
X011485Y002385D01*
X011885Y002385D02*
X011985Y002385D01*
X011985Y002485D01*
X011985Y002885D02*
X011985Y002985D01*
X011885Y002985D01*
X011885Y003385D02*
X011985Y003385D01*
X011985Y003485D01*
X011985Y003885D02*
X011985Y003985D01*
X011885Y003985D01*
X013385Y003985D02*
X013385Y003885D01*
X013385Y003985D02*
X013485Y003985D01*
X013485Y004385D02*
X013385Y004385D01*
X013385Y004485D01*
X013385Y004885D02*
X013385Y004985D01*
X013485Y004985D01*
X013885Y004985D02*
X013985Y004985D01*
X013985Y004885D01*
X013985Y004485D02*
X013985Y004385D01*
X013885Y004385D01*
X013885Y003985D02*
X013985Y003985D01*
X013985Y003885D01*
X013985Y003485D02*
X013985Y003385D01*
X013885Y003385D01*
X013885Y002985D02*
X013985Y002985D01*
X013985Y002885D01*
X013985Y002485D02*
X013985Y002385D01*
X013885Y002385D01*
X013485Y002385D02*
X013385Y002385D01*
X013385Y002485D01*
X013385Y002885D02*
X013385Y002985D01*
X013485Y002985D01*
X013485Y003385D02*
X013385Y003385D01*
X013385Y003485D01*
X013385Y005385D02*
X013485Y005385D01*
X013385Y005385D02*
X013385Y005485D01*
X013385Y005885D02*
X013385Y005985D01*
X013485Y005985D01*
X013885Y005985D02*
X013985Y005985D01*
X013985Y005885D01*
X013985Y005485D02*
X013985Y005385D01*
X013885Y005385D01*
X015885Y004985D02*
X015885Y004885D01*
X015885Y004985D02*
X015985Y004985D01*
X016385Y004985D02*
X016485Y004985D01*
X016485Y004885D01*
X016485Y004485D02*
X016485Y004385D01*
X016385Y004385D01*
X016385Y003985D02*
X016485Y003985D01*
X016485Y003885D01*
X016485Y003485D02*
X016485Y003385D01*
X016385Y003385D01*
X016385Y002985D02*
X016485Y002985D01*
X016485Y002885D01*
X016485Y002485D02*
X016485Y002385D01*
X016385Y002385D01*
X015985Y002385D02*
X015885Y002385D01*
X015885Y002485D01*
X015885Y002885D02*
X015885Y002985D01*
X015985Y002985D01*
X015985Y003385D02*
X015885Y003385D01*
X015885Y003485D01*
X015885Y003885D02*
X015885Y003985D01*
X015985Y003985D01*
X015985Y004385D02*
X015885Y004385D01*
X015885Y004485D01*
X018385Y003985D02*
X018385Y003885D01*
X018385Y003985D02*
X018485Y003985D01*
X018885Y003985D02*
X018985Y003985D01*
X018985Y003885D01*
X018985Y003485D02*
X018985Y003385D01*
X018885Y003385D01*
X018885Y002985D02*
X018985Y002985D01*
X018985Y002885D01*
X018985Y002485D02*
X018985Y002385D01*
X018885Y002385D01*
X018485Y002385D02*
X018385Y002385D01*
X018385Y002485D01*
X018385Y002885D02*
X018385Y002985D01*
X018485Y002985D01*
X018485Y003385D02*
X018385Y003385D01*
X018385Y003485D01*
D12*
X017416Y003608D02*
X017416Y003915D01*
X017416Y003762D02*
X016955Y003762D01*
X016955Y003455D02*
X017262Y003455D01*
X017109Y003455D02*
X017262Y003302D01*
X017262Y003225D01*
X017262Y003071D02*
X017262Y002995D01*
X016955Y002995D01*
X016955Y003071D02*
X016955Y002918D01*
X017032Y002764D02*
X016955Y002688D01*
X016955Y002458D01*
X016879Y002458D02*
X017262Y002458D01*
X017262Y002688D01*
X017186Y002764D01*
X017032Y002764D01*
X016802Y002611D02*
X016802Y002534D01*
X016879Y002458D01*
X017032Y002304D02*
X016955Y002227D01*
X016955Y001997D01*
X016879Y001997D02*
X017262Y001997D01*
X017262Y002227D01*
X017186Y002304D01*
X017032Y002304D01*
X016802Y002151D02*
X016802Y002074D01*
X016879Y001997D01*
X017032Y001844D02*
X017186Y001844D01*
X017262Y001767D01*
X017262Y001614D01*
X017186Y001537D01*
X017109Y001537D01*
X017109Y001844D01*
X017032Y001844D02*
X016955Y001767D01*
X016955Y001614D01*
X016955Y001383D02*
X017262Y001383D01*
X017262Y001230D02*
X017262Y001153D01*
X017262Y001230D02*
X017109Y001383D01*
X017416Y002995D02*
X017492Y002995D01*
X019455Y002918D02*
X019455Y002688D01*
X019762Y002688D01*
X019762Y002534D02*
X019762Y002381D01*
X019839Y002458D02*
X019532Y002458D01*
X019455Y002381D01*
X019532Y002151D02*
X019455Y002074D01*
X019532Y002151D02*
X019839Y002151D01*
X019762Y002227D02*
X019762Y002074D01*
X019686Y001921D02*
X019532Y001921D01*
X019455Y001844D01*
X019455Y001690D01*
X019609Y001614D02*
X019609Y001921D01*
X019686Y001921D02*
X019762Y001844D01*
X019762Y001690D01*
X019686Y001614D01*
X019609Y001614D01*
X019609Y001460D02*
X019762Y001307D01*
X019762Y001230D01*
X019762Y001460D02*
X019455Y001460D01*
X019455Y002918D02*
X019532Y002995D01*
X019762Y002995D01*
X019686Y003148D02*
X019455Y003148D01*
X019686Y003148D02*
X019762Y003225D01*
X019762Y003378D01*
X019686Y003455D01*
X019609Y003608D02*
X019686Y003685D01*
X019686Y003839D01*
X019762Y003915D01*
X019839Y003915D01*
X019916Y003839D01*
X019916Y003685D01*
X019839Y003608D01*
X019916Y003455D02*
X019455Y003455D01*
X019532Y003608D02*
X019455Y003685D01*
X019455Y003839D01*
X019532Y003915D01*
X019532Y003608D02*
X019609Y003608D01*
X014916Y003608D02*
X014916Y003915D01*
X014455Y003915D01*
X014455Y003608D01*
X014455Y003455D02*
X014762Y003455D01*
X014762Y003225D01*
X014686Y003148D01*
X014455Y003148D01*
X014532Y002995D02*
X014455Y002918D01*
X014455Y002688D01*
X014532Y002534D02*
X014455Y002458D01*
X014455Y002304D01*
X014532Y002227D01*
X014686Y002227D01*
X014762Y002304D01*
X014762Y002458D01*
X014686Y002534D01*
X014532Y002534D01*
X014762Y002688D02*
X014762Y002918D01*
X014686Y002995D01*
X014532Y002995D01*
X014686Y003762D02*
X014686Y003915D01*
X012916Y003762D02*
X012455Y003762D01*
X012455Y003915D02*
X012455Y003608D01*
X012532Y003455D02*
X012455Y003378D01*
X012455Y003225D01*
X012532Y003148D01*
X012609Y003148D01*
X012686Y003225D01*
X012686Y003455D01*
X012532Y003455D01*
X012686Y003455D02*
X012839Y003302D01*
X012916Y003148D01*
X012916Y002995D02*
X012762Y002841D01*
X012916Y002688D01*
X012455Y002688D01*
X012455Y002534D02*
X012916Y002534D01*
X012686Y002534D02*
X012686Y002227D01*
X012762Y002074D02*
X012762Y001767D01*
X012455Y002074D01*
X012455Y001767D01*
X012455Y002227D02*
X012916Y002227D01*
X012916Y002995D02*
X012455Y002995D01*
X012916Y003762D02*
X012762Y003915D01*
X014532Y002074D02*
X014455Y001997D01*
X014455Y001767D01*
X014916Y001767D01*
X014762Y001767D02*
X014762Y001997D01*
X014686Y002074D01*
X014532Y002074D01*
X014532Y001614D02*
X014455Y001537D01*
X014455Y001383D01*
X014609Y001307D02*
X014609Y001614D01*
X014686Y001614D02*
X014762Y001537D01*
X014762Y001383D01*
X014686Y001307D01*
X014609Y001307D01*
X014609Y001153D02*
X014762Y001000D01*
X014762Y000923D01*
X014762Y001153D02*
X014455Y001153D01*
X014532Y001614D02*
X014686Y001614D01*
X009928Y004032D02*
X009851Y003955D01*
X009698Y003955D01*
X009621Y004032D01*
X009621Y004186D02*
X009774Y004262D01*
X009851Y004262D01*
X009928Y004186D01*
X009928Y004032D01*
X009621Y004186D02*
X009621Y004416D01*
X009928Y004416D01*
X009467Y004186D02*
X009161Y004186D01*
X009391Y004416D01*
X009391Y003955D01*
X009007Y003955D02*
X008777Y003955D01*
X008700Y004032D01*
X008700Y004262D01*
X008547Y004186D02*
X008547Y003955D01*
X008547Y004186D02*
X008470Y004262D01*
X008240Y004262D01*
X008240Y003955D01*
X008086Y003955D02*
X007933Y003955D01*
X008010Y003955D02*
X008010Y004262D01*
X007933Y004262D01*
X007779Y004262D02*
X007626Y004262D01*
X007703Y004339D02*
X007703Y004032D01*
X007779Y003955D01*
X007319Y003955D02*
X007319Y004416D01*
X007166Y004416D02*
X007473Y004416D01*
X007012Y004262D02*
X007012Y003955D01*
X007012Y004186D02*
X006705Y004186D01*
X006705Y004262D02*
X006859Y004416D01*
X007012Y004262D01*
X006705Y004262D02*
X006705Y003955D01*
X008010Y004416D02*
X008010Y004492D01*
X009007Y004262D02*
X009007Y003879D01*
X008930Y003802D01*
X008854Y003802D01*
X012455Y006455D02*
X012609Y006455D01*
X012532Y006455D02*
X012532Y006916D01*
X012455Y006916D02*
X012609Y006916D01*
X012762Y006839D02*
X012762Y006532D01*
X012839Y006455D01*
X012992Y006455D01*
X013069Y006532D01*
X013223Y006532D02*
X013299Y006455D01*
X013453Y006455D01*
X013529Y006532D01*
X013529Y006609D01*
X013453Y006686D01*
X013299Y006686D01*
X013223Y006762D01*
X013223Y006839D01*
X013299Y006916D01*
X013453Y006916D01*
X013529Y006839D01*
X013683Y006916D02*
X013913Y006916D01*
X013990Y006839D01*
X013990Y006686D01*
X013913Y006609D01*
X013683Y006609D01*
X013683Y006455D02*
X013683Y006916D01*
X013069Y006839D02*
X012992Y006916D01*
X012839Y006916D01*
X012762Y006839D01*
X015705Y008455D02*
X016012Y008455D01*
X015859Y008455D02*
X015859Y008916D01*
X015705Y008762D01*
X016166Y008686D02*
X016396Y008686D01*
X016473Y008609D01*
X016473Y008532D01*
X016396Y008455D01*
X016242Y008455D01*
X016166Y008532D01*
X016166Y008686D01*
X016319Y008839D01*
X016473Y008916D01*
X016626Y008916D02*
X016779Y008762D01*
X016933Y008916D01*
X016933Y008455D01*
X017086Y008455D02*
X017086Y008916D01*
X017086Y008686D02*
X017393Y008686D01*
X017547Y008762D02*
X017854Y008762D01*
X017547Y008455D01*
X017854Y008455D01*
X017393Y008455D02*
X017393Y008916D01*
X016626Y008916D02*
X016626Y008455D01*
X019200Y012802D02*
X019277Y012802D01*
X019354Y012879D01*
X019354Y013262D01*
X019123Y013262D01*
X019047Y013186D01*
X019047Y013032D01*
X019123Y012955D01*
X019354Y012955D01*
X019507Y013032D02*
X019584Y013109D01*
X019814Y013109D01*
X019814Y013186D02*
X019814Y012955D01*
X019584Y012955D01*
X019507Y013032D01*
X019584Y013262D02*
X019737Y013262D01*
X019814Y013186D01*
X019967Y013262D02*
X020121Y013416D01*
X020121Y012955D01*
X020274Y012955D02*
X019967Y012955D01*
X020428Y013032D02*
X020428Y013186D01*
X020658Y013186D01*
X020735Y013109D01*
X020735Y013032D01*
X020658Y012955D01*
X020505Y012955D01*
X020428Y013032D01*
X020428Y013186D02*
X020581Y013339D01*
X020735Y013416D01*
X020888Y013339D02*
X020888Y013262D01*
X020965Y013186D01*
X021118Y013186D01*
X021195Y013109D01*
X021195Y013032D01*
X021118Y012955D01*
X020965Y012955D01*
X020888Y013032D01*
X020888Y013109D01*
X020965Y013186D01*
X021118Y013186D02*
X021195Y013262D01*
X021195Y013339D01*
X021118Y013416D01*
X020965Y013416D01*
X020888Y013339D01*
X018893Y013186D02*
X018893Y013109D01*
X018586Y013109D01*
X018586Y013032D02*
X018586Y013186D01*
X018663Y013262D01*
X018817Y013262D01*
X018893Y013186D01*
X018817Y012955D02*
X018663Y012955D01*
X018586Y013032D01*
X018433Y012955D02*
X018433Y013186D01*
X018356Y013262D01*
X018279Y013186D01*
X018279Y012955D01*
X018126Y012955D02*
X018126Y013262D01*
X018203Y013262D01*
X018279Y013186D01*
X017973Y013416D02*
X017666Y013416D01*
X017819Y013416D02*
X017819Y012955D01*
X017512Y012955D02*
X017512Y013262D01*
X017359Y013416D01*
X017205Y013262D01*
X017205Y012955D01*
X017205Y013186D02*
X017512Y013186D01*
X018705Y017455D02*
X018705Y017762D01*
X018859Y017916D01*
X019012Y017762D01*
X019012Y017455D01*
X019166Y017455D02*
X019396Y017455D01*
X019473Y017532D01*
X019473Y017839D01*
X019396Y017916D01*
X019166Y017916D01*
X019166Y017455D01*
X019012Y017686D02*
X018705Y017686D01*
X019626Y017686D02*
X019779Y017762D01*
X019856Y017762D01*
X019933Y017686D01*
X019933Y017532D01*
X019856Y017455D01*
X019703Y017455D01*
X019626Y017532D01*
X019626Y017686D02*
X019626Y017916D01*
X019933Y017916D01*
X020086Y017839D02*
X020163Y017916D01*
X020317Y017916D01*
X020393Y017839D01*
X020393Y017762D01*
X020086Y017455D01*
X020393Y017455D01*
X020547Y017532D02*
X020854Y017839D01*
X020854Y017532D01*
X020777Y017455D01*
X020623Y017455D01*
X020547Y017532D01*
X020547Y017839D01*
X020623Y017916D01*
X020777Y017916D01*
X020854Y017839D01*
X021007Y017686D02*
X021237Y017686D01*
X021314Y017609D01*
X021314Y017532D01*
X021237Y017455D01*
X021084Y017455D01*
X021007Y017532D01*
X021007Y017686D01*
X021161Y017839D01*
X021314Y017916D01*
X021955Y021955D02*
X022262Y021955D01*
X022109Y021955D02*
X022109Y022416D01*
X021955Y022262D01*
X022416Y022186D02*
X022416Y022032D01*
X022492Y021955D01*
X022646Y021955D01*
X022723Y022032D01*
X022723Y022109D01*
X022646Y022186D01*
X022416Y022186D01*
X022569Y022339D01*
X022723Y022416D01*
X015433Y022339D02*
X015433Y022032D01*
X015356Y021955D01*
X015126Y021955D01*
X015126Y022416D01*
X015356Y022416D01*
X015433Y022339D01*
X014973Y022339D02*
X014896Y022416D01*
X014742Y022416D01*
X014666Y022339D01*
X014666Y022032D01*
X014742Y021955D01*
X014896Y021955D01*
X014973Y022032D01*
X014512Y021955D02*
X014205Y021955D01*
X014205Y022416D01*
X008948Y017916D02*
X008948Y017455D01*
X009024Y017686D02*
X008717Y017686D01*
X008948Y017916D01*
X008564Y017916D02*
X008411Y017839D01*
X008257Y017686D01*
X008487Y017686D01*
X008564Y017609D01*
X008564Y017532D01*
X008487Y017455D01*
X008334Y017455D01*
X008257Y017532D01*
X008257Y017686D01*
X008104Y017455D02*
X007797Y017455D01*
X007950Y017455D02*
X007950Y017916D01*
X007797Y017762D01*
X007643Y017839D02*
X007567Y017916D01*
X007413Y017916D01*
X007336Y017839D01*
X007336Y017532D01*
X007413Y017455D01*
X007567Y017455D01*
X007643Y017532D01*
X007183Y017455D02*
X007183Y017916D01*
X007183Y017686D02*
X006876Y017686D01*
X006723Y017686D02*
X006416Y017686D01*
X006646Y017916D01*
X006646Y017455D01*
X006876Y017455D02*
X006876Y017916D01*
X006262Y017916D02*
X006262Y017839D01*
X005955Y017532D01*
X005955Y017455D01*
X005955Y017916D02*
X006262Y017916D01*
X006955Y021955D02*
X007262Y021955D01*
X007109Y021955D02*
X007109Y022416D01*
X006955Y022262D01*
X004683Y022339D02*
X004683Y022032D01*
X004606Y021955D01*
X004376Y021955D01*
X004376Y022416D01*
X004606Y022416D01*
X004683Y022339D01*
X004223Y022416D02*
X003916Y022416D01*
X003916Y021955D01*
X004223Y021955D01*
X004069Y022186D02*
X003916Y022186D01*
X003762Y021955D02*
X003455Y021955D01*
X003455Y022416D01*
D13*
X001985Y017785D02*
X001685Y017785D01*
X001385Y017785D01*
X001385Y017585D02*
X001685Y017585D01*
X001985Y017585D01*
X001369Y014819D02*
X001369Y014552D01*
X001502Y014686D02*
X001235Y014686D01*
X003385Y014435D02*
X003885Y014435D01*
X003385Y014435D02*
X003385Y011935D01*
X003885Y011935D01*
X004485Y011935D02*
X004985Y011935D01*
X004985Y014435D01*
X004485Y014435D01*
X004435Y013685D02*
X003935Y013685D01*
X003935Y012685D01*
X004435Y012685D01*
X004435Y013685D01*
X004385Y013585D02*
X003985Y013585D01*
X003985Y013285D02*
X004385Y013285D01*
X005385Y014435D02*
X005885Y014435D01*
X005385Y014435D02*
X005385Y011935D01*
X005885Y011935D01*
X006485Y011935D02*
X006985Y011935D01*
X006985Y014435D01*
X006485Y014435D01*
X006435Y013685D02*
X005935Y013685D01*
X005935Y012685D01*
X006435Y012685D01*
X006435Y013685D01*
X006385Y013585D02*
X005985Y013585D01*
X005985Y013285D02*
X006385Y013285D01*
X001502Y011686D02*
X001235Y011686D01*
X002385Y004285D02*
X002685Y004285D01*
X002985Y004285D01*
X002985Y004085D02*
X002685Y004085D01*
X002385Y004085D01*
X013585Y009885D02*
X013585Y010185D01*
X013585Y010485D01*
X013785Y010485D02*
X013785Y010185D01*
X013785Y009885D01*
X022885Y019585D02*
X023185Y019585D01*
X023485Y019585D01*
X023485Y019785D02*
X023185Y019785D01*
X022885Y019785D01*
D14*
X015355Y002685D02*
X015378Y002742D01*
X015435Y002765D01*
X015492Y002742D01*
X015515Y002685D01*
X015492Y002628D01*
X015435Y002605D01*
X015378Y002628D01*
X015355Y002685D01*
X012855Y002685D02*
X012878Y002742D01*
X012935Y002765D01*
X012992Y002742D01*
X013015Y002685D01*
X012992Y002628D01*
X012935Y002605D01*
X012878Y002628D01*
X012855Y002685D01*
X003605Y020435D02*
X003628Y020492D01*
X003685Y020515D01*
X003742Y020492D01*
X003765Y020435D01*
X003742Y020378D01*
X003685Y020355D01*
X003628Y020378D01*
X003605Y020435D01*
D15*
X003185Y009760D03*
X004185Y009760D03*
X005185Y009760D03*
X006185Y009760D03*
X007185Y009760D03*
X008185Y009760D03*
X009185Y009760D03*
X010185Y009760D03*
X010185Y007610D03*
X009185Y007610D03*
X008185Y007610D03*
X007185Y007610D03*
X006185Y007610D03*
X005185Y007610D03*
X004185Y007610D03*
X003185Y007610D03*
D16*
X004199Y012150D02*
X004312Y012150D01*
X004369Y012207D01*
X004369Y012434D01*
X004312Y012491D01*
X004199Y012491D01*
X004142Y012434D01*
X004142Y012207D01*
X004199Y012150D01*
X004501Y012150D02*
X004501Y012491D01*
X004728Y012150D01*
X004728Y012491D01*
X006142Y012434D02*
X006142Y012207D01*
X006199Y012150D01*
X006312Y012150D01*
X006369Y012207D01*
X006369Y012434D01*
X006312Y012491D01*
X006199Y012491D01*
X006142Y012434D01*
X006501Y012491D02*
X006501Y012150D01*
X006728Y012150D02*
X006728Y012491D01*
X006501Y012491D02*
X006728Y012150D01*
X006228Y013870D02*
X006001Y013870D01*
X006115Y013870D02*
X006115Y014211D01*
X006001Y014097D01*
X004228Y013870D02*
X004001Y013870D01*
X004115Y013870D02*
X004115Y014211D01*
X004001Y014097D01*
X015861Y006535D02*
X017510Y006535D01*
X017238Y007135D02*
X017133Y007135D01*
X017640Y006747D02*
X017613Y006691D01*
X017582Y006637D01*
X017548Y006585D01*
X017511Y006535D01*
X017635Y007632D02*
X017606Y007689D01*
X017573Y007745D01*
X017538Y007798D01*
X017498Y007849D01*
X017456Y007897D01*
X017411Y007943D01*
X017364Y007986D01*
X017314Y008026D01*
X017261Y008063D01*
X017206Y008096D01*
X017150Y008127D01*
X017091Y008153D01*
X017031Y008176D01*
X016970Y008196D01*
X016908Y008211D01*
X016845Y008223D01*
X016781Y008231D01*
X016717Y008235D01*
X016653Y008235D01*
X016589Y008231D01*
X016525Y008223D01*
X016462Y008211D01*
X016400Y008196D01*
X016339Y008176D01*
X016279Y008153D01*
X016220Y008127D01*
X016164Y008096D01*
X016109Y008063D01*
X016056Y008026D01*
X016006Y007986D01*
X015959Y007943D01*
X015914Y007897D01*
X015872Y007849D01*
X015832Y007798D01*
X015797Y007745D01*
X015764Y007689D01*
X015735Y007632D01*
X016133Y007135D02*
X016238Y007135D01*
X015735Y006738D02*
X015762Y006684D01*
X015792Y006633D01*
X015825Y006583D01*
X015860Y006535D01*
D17*
X014685Y007435D02*
X014685Y008935D01*
X014435Y009185D01*
X013935Y009185D01*
X013685Y008935D01*
X013685Y007435D01*
X013935Y007185D01*
X014435Y007185D01*
X014685Y007435D01*
X013685Y007435D02*
X013435Y007185D01*
X012935Y007185D01*
X012685Y007435D01*
X012685Y008935D01*
X012935Y009185D01*
X013435Y009185D01*
X013685Y008935D01*
X012685Y008935D02*
X012435Y009185D01*
X011935Y009185D01*
X011685Y008935D01*
X011685Y007435D01*
X011935Y007185D01*
X012435Y007185D01*
X012685Y007435D01*
X012435Y007053D02*
X011935Y007053D01*
M02*
