G75*
G70*
%OFA0B0*%
%FSLAX24Y24*%
%IPPOS*%
%LPD*%
%AMOC8*
5,1,8,0,0,1.08239X$1,22.5*
%
%ADD10C,0.1182*%
%ADD11C,0.0600*%
%ADD12OC8,0.0600*%
%ADD13OC8,0.0680*%
%ADD14OC8,0.0710*%
%ADD15C,0.0680*%
%ADD16C,0.0600*%
%ADD17C,0.0480*%
D10*
X001185Y001185D03*
X024385Y001185D03*
X024385Y023185D03*
X001185Y023185D03*
D11*
X003185Y019445D02*
X003185Y018925D01*
X004185Y018925D02*
X004185Y019445D01*
X005185Y019445D02*
X005185Y018925D01*
X006185Y018925D02*
X006185Y019445D01*
X007185Y019445D02*
X007185Y018925D01*
X008185Y018925D02*
X008185Y019445D01*
X009185Y019445D02*
X009185Y018925D01*
X010685Y018925D02*
X010685Y019445D01*
X011685Y019445D02*
X011685Y018925D01*
X012685Y018925D02*
X012685Y019445D01*
X013685Y019445D02*
X013685Y018925D01*
X014685Y018925D02*
X014685Y019445D01*
X015685Y019445D02*
X015685Y018925D01*
X016685Y018925D02*
X016685Y019445D01*
X017685Y019445D02*
X017685Y018925D01*
X018685Y018925D02*
X018685Y019445D01*
X019685Y019445D02*
X019685Y018925D01*
X020685Y018925D02*
X020685Y019445D01*
X021685Y019445D02*
X021685Y018925D01*
X021685Y016445D02*
X021685Y015925D01*
X020685Y015925D02*
X020685Y016445D01*
X019685Y016445D02*
X019685Y015925D01*
X018685Y015925D02*
X018685Y016445D01*
X017685Y016445D02*
X017685Y015925D01*
X016685Y015925D02*
X016685Y016445D01*
X015685Y016445D02*
X015685Y015925D01*
X014685Y015925D02*
X014685Y016445D01*
X013685Y016445D02*
X013685Y015925D01*
X012685Y015925D02*
X012685Y016445D01*
X011685Y016445D02*
X011685Y015925D01*
X010685Y015925D02*
X010685Y016445D01*
X009185Y016445D02*
X009185Y015925D01*
X009185Y014945D02*
X009185Y014425D01*
X008185Y014425D02*
X008185Y014945D01*
X008185Y015925D02*
X008185Y016445D01*
X007185Y016445D02*
X007185Y015925D01*
X006185Y015925D02*
X006185Y016445D01*
X005185Y016445D02*
X005185Y015925D01*
X004185Y015925D02*
X004185Y016445D01*
X003185Y016445D02*
X003185Y015925D01*
X004185Y014945D02*
X004185Y014425D01*
X006185Y014425D02*
X006185Y014945D01*
X006185Y011945D02*
X006185Y011425D01*
X004185Y011425D02*
X004185Y011945D01*
X008185Y011945D02*
X008185Y011425D01*
X009185Y011425D02*
X009185Y011945D01*
X010185Y011945D02*
X010185Y011425D01*
X011185Y011425D02*
X011185Y011945D01*
X012185Y011945D02*
X012185Y011425D01*
X013185Y011425D02*
X013185Y011945D01*
X014185Y011945D02*
X014185Y011425D01*
X015185Y011425D02*
X015185Y011945D01*
X016185Y011945D02*
X016185Y011425D01*
X017185Y011425D02*
X017185Y011945D01*
X018185Y011945D02*
X018185Y011425D01*
X019185Y011425D02*
X019185Y011945D01*
X020185Y011945D02*
X020185Y011425D01*
X021185Y011425D02*
X021185Y011945D01*
X021185Y014425D02*
X021185Y014945D01*
X020185Y014945D02*
X020185Y014425D01*
X019185Y014425D02*
X019185Y014945D01*
X018185Y014945D02*
X018185Y014425D01*
X017185Y014425D02*
X017185Y014945D01*
X016185Y014945D02*
X016185Y014425D01*
X015185Y014425D02*
X015185Y014945D01*
X014185Y014945D02*
X014185Y014425D01*
X013185Y014425D02*
X013185Y014945D01*
X012185Y014945D02*
X012185Y014425D01*
X011185Y014425D02*
X011185Y014945D01*
X010185Y014945D02*
X010185Y014425D01*
X015685Y007445D02*
X015685Y006925D01*
X016685Y006925D02*
X016685Y007445D01*
X017685Y007445D02*
X017685Y006925D01*
X010185Y005945D02*
X010185Y005425D01*
X009185Y005425D02*
X009185Y005945D01*
X008185Y005945D02*
X008185Y005425D01*
X007185Y005425D02*
X007185Y005945D01*
X006185Y005945D02*
X006185Y005425D01*
X005185Y005425D02*
X005185Y005945D01*
X004185Y005945D02*
X004185Y005425D01*
X004185Y002945D02*
X004185Y002425D01*
X005185Y002425D02*
X005185Y002945D01*
X006185Y002945D02*
X006185Y002425D01*
X007185Y002425D02*
X007185Y002945D01*
X008185Y002945D02*
X008185Y002425D01*
X009185Y002425D02*
X009185Y002945D01*
X010185Y002945D02*
X010185Y002425D01*
D12*
X010185Y007185D03*
X009185Y007185D03*
X008185Y007185D03*
X007185Y007185D03*
X006185Y007185D03*
X005185Y007185D03*
X004185Y007185D03*
X003185Y007185D03*
X002685Y004685D03*
X002685Y003685D03*
X003185Y010185D03*
X004185Y010185D03*
X005185Y010185D03*
X006185Y010185D03*
X007185Y010185D03*
X008185Y010185D03*
X009185Y010185D03*
X010185Y010185D03*
X013185Y010185D03*
X014185Y010185D03*
X023185Y019185D03*
X023185Y020185D03*
X002185Y012785D03*
X001685Y017185D03*
X001685Y018185D03*
D13*
X012185Y008685D03*
X013185Y008685D03*
X013185Y007685D03*
X012185Y007685D03*
X014185Y007685D03*
X014185Y008685D03*
D14*
X015685Y009685D03*
X016685Y009685D03*
X017685Y009685D03*
X013685Y005685D03*
X013685Y004685D03*
X013685Y003685D03*
X013685Y002685D03*
X011685Y002685D03*
X011685Y003685D03*
X011685Y004685D03*
X016185Y004685D03*
X016185Y003685D03*
X016185Y002685D03*
X018685Y002685D03*
X018685Y003685D03*
X002185Y011685D03*
X002185Y014685D03*
X002685Y021185D03*
X003685Y021185D03*
X004685Y021185D03*
X005685Y021185D03*
D15*
X007185Y020885D02*
X007185Y021485D01*
X008185Y021485D02*
X008185Y020885D01*
X009185Y020885D02*
X009185Y021485D01*
X010185Y021485D02*
X010185Y020885D01*
X011185Y020885D02*
X011185Y021485D01*
X012185Y021485D02*
X012185Y020885D01*
X013185Y020885D02*
X013185Y021485D01*
X014185Y021485D02*
X014185Y020885D01*
X015185Y020885D02*
X015185Y021485D01*
X016185Y021485D02*
X016185Y020885D01*
X017185Y020885D02*
X017185Y021485D01*
X018185Y021485D02*
X018185Y020885D01*
X019185Y020885D02*
X019185Y021485D01*
X020185Y021485D02*
X020185Y020885D01*
X021185Y020885D02*
X021185Y021485D01*
X022185Y021485D02*
X022185Y020885D01*
D16*
X002185Y013585D03*
D17*
X006765Y011325D03*
X010205Y016845D03*
X009405Y018045D03*
X006445Y022605D03*
X019085Y017645D03*
X018605Y009965D03*
M02*
