%
M48
M72
T01C0.0240
T02C0.0320
T03C0.0360
T04C0.0400
T05C0.1102
%
T01
X6765Y11325
X10205Y16845
X9405Y18045
X6445Y22605
X19085Y17645
X18605Y9965
T02
X18185Y11685
X17185Y11685
X16185Y11685
X15185Y11685
X14185Y11685
X13185Y11685
X12185Y11685
X11185Y11685
X10185Y11685
X9185Y11685
X8185Y11685
X8185Y10185
X7185Y10185
X6185Y10185
X5185Y10185
X4185Y10185
X3185Y10185
X4185Y11685
X6185Y11685
X9185Y10185
X10185Y10185
X13185Y10185
X14185Y10185
X15685Y7185
X16685Y7185
X17685Y7185
X19185Y11685
X20185Y11685
X21185Y11685
X21185Y14685
X20185Y14685
X19185Y14685
X18185Y14685
X17185Y14685
X16185Y14685
X15185Y14685
X14185Y14685
X13185Y14685
X12185Y14685
X11185Y14685
X10185Y14685
X9185Y14685
X8185Y14685
X8185Y16185
X7185Y16185
X6185Y16185
X5185Y16185
X4185Y16185
X3185Y16185
X4185Y14685
X6185Y14685
X9185Y16185
X10685Y16185
X11685Y16185
X12685Y16185
X13685Y16185
X14685Y16185
X15685Y16185
X16685Y16185
X17685Y16185
X18685Y16185
X19685Y16185
X20685Y16185
X21685Y16185
X21685Y19185
X20685Y19185
X19685Y19185
X18685Y19185
X17685Y19185
X16685Y19185
X15685Y19185
X14685Y19185
X13685Y19185
X12685Y19185
X11685Y19185
X10685Y19185
X9185Y19185
X8185Y19185
X7185Y19185
X6185Y19185
X5185Y19185
X4185Y19185
X3185Y19185
X1685Y18185
X1685Y17185
X2185Y13585
X2185Y12785
X3185Y7185
X4185Y7185
X5185Y7185
X6185Y7185
X7185Y7185
X8185Y7185
X9185Y7185
X10185Y7185
X10185Y5685
X9185Y5685
X8185Y5685
X7185Y5685
X6185Y5685
X5185Y5685
X4185Y5685
X2685Y4685
X2685Y3685
X4185Y2685
X5185Y2685
X6185Y2685
X7185Y2685
X8185Y2685
X9185Y2685
X10185Y2685
X23185Y19185
X23185Y20185
T03
X17685Y9685
X16685Y9685
X15685Y9685
X13685Y5685
X13685Y4685
X13685Y3685
X13685Y2685
X11685Y2685
X11685Y3685
X11685Y4685
X16185Y4685
X16185Y3685
X16185Y2685
X18685Y2685
X18685Y3685
X2185Y11685
X2185Y14685
X2685Y21185
X3685Y21185
X4685Y21185
X5685Y21185
T04
X7185Y21185
X8185Y21185
X9185Y21185
X10185Y21185
X11185Y21185
X12185Y21185
X13185Y21185
X14185Y21185
X15185Y21185
X16185Y21185
X17185Y21185
X18185Y21185
X19185Y21185
X20185Y21185
X21185Y21185
X22185Y21185
X14185Y8685
X14185Y7685
X13185Y7685
X12185Y7685
X12185Y8685
X13185Y8685
T05
X1185Y1185
X24385Y1185
X24385Y23185
X1185Y23185
M30
